# xmcd
#
# Track frame offsets: 
#        150
#        13805
#        29440
#        44016
#        65126
#        79742
#        90806
#        102016
#        118907
#        137704
#
# Disc length: 2142 seconds
#
# Revision: 0
# Processed by: cddbd v1.5.2PL0 Copyright (c) Steve Scherf et al.
# Submitted via: ExactAudioCopyFreeDBPlugin 1.0
#
DISCID=83085c0a
DTITLE=Ashford and Simpson - I Wanna Be Selfish
DYEAR=1974
DGENRE=Soul
TTITLE0=Spoiled
TTITLE1=Everybody's Got To Give It Up
TTITLE2=I Wanna Be Selfish
TTITLE3=I Had A Love
TTITLE4=Main Line
TTITLE5=Ain't That Somethin'
TTITLE6=Don't Fight It
TTITLE7=Ain't Nothin' But A Maybe
TTITLE8=Over To Where You Are
TTITLE9=Take All The Time You Need
EXTD=
EXTT0=
EXTT1=
EXTT2=
EXTT3=
EXTT4=
EXTT5=
EXTT6=
EXTT7=
EXTT8=
EXTT9=
PLAYORDER=
